<mxfile host="app.diagrams.net" modified="2023-11-23T10:39:02.450Z" agent="Mozilla/5.0 (Macintosh; Intel Mac OS X 10_15_7) AppleWebKit/537.36 (KHTML, like Gecko) Chrome/119.0.0.0 Safari/537.36 Edg/119.0.0.0" version="22.1.3" etag="UR9sp6CzlljswAbuTS_B" type="github">
  <diagram name="Page-1" id="LYWbBOIyYOQkZ1xpHYuo">
    <mxGraphModel>
      <root>
        <mxCell id="0" />
        <mxCell id="1" parent="0" />
      </root>
    </mxGraphModel>
  </diagram>
</mxfile>
